<svg id="Layer_1" data-name="Layer 1" xmlns="http://www.w3.org/2000/svg" viewBox="0 0 190 61.16"><defs><style>.cls-1{fill:#bedfbc;}.cls-2{fill:none;}</style></defs><polygon class="cls-1" points="30.93 47.55 9.8 0 0 0 0 61.16 10.15 61.16 10.15 22.87 27.5 61.16 34.18 61.16 51.62 22.68 51.62 61.16 61.76 61.16 61.76 0 52.05 0 30.93 47.55"/><polygon class="cls-1" points="77.55 61.16 88.74 61.16 88.74 34.87 115.89 34.87 115.89 26.11 88.74 26.11 88.74 8.76 117.89 8.76 117.89 0 77.55 0 77.55 61.16"/><polygon class="cls-2" points="177.89 2.93 161.01 42.01 165.18 51.71 186.32 2.93 177.89 2.93"/><path class="cls-1" d="M177.75,65.42l-17.49,40.52L142.85,65.42H129.6l26.45,61h8.5l26.45-61Zm-15.74,42,16.88-39.09h8.43l-21.15,48.78Z" transform="translate(-1 -65.42)"/></svg>